<svg width="52" height="52" viewBox="0 0 52 52" fill="none" xmlns="http://www.w3.org/2000/svg">
<path d="M41.1667 2.16699H10.8333C7.96121 2.17043 5.20771 3.3129 3.17681 5.3438C1.14591 7.3747 0.00344036 10.1282 0 13.0003L0 39.0003C0.00344036 41.8724 1.14591 44.6259 3.17681 46.6568C5.20771 48.6877 7.96121 49.8302 10.8333 49.8337H41.1667C44.0388 49.8302 46.7923 48.6877 48.8232 46.6568C50.8541 44.6259 51.9966 41.8724 52 39.0003V13.0003C51.9966 10.1282 50.8541 7.3747 48.8232 5.3438C46.7923 3.3129 44.0388 2.17043 41.1667 2.16699ZM10.8333 6.50033H41.1667C42.8906 6.50033 44.5439 7.18514 45.7629 8.40413C46.9818 9.62312 47.6667 11.2764 47.6667 13.0003V15.167H4.33333V13.0003C4.33333 11.2764 5.01815 9.62312 6.23714 8.40413C7.45613 7.18514 9.10943 6.50033 10.8333 6.50033ZM41.1667 45.5003H10.8333C9.10943 45.5003 7.45613 44.8155 6.23714 43.5965C5.01815 42.3775 4.33333 40.7242 4.33333 39.0003V19.5003H47.6667V39.0003C47.6667 40.7242 46.9818 42.3775 45.7629 43.5965C44.5439 44.8155 42.8906 45.5003 41.1667 45.5003ZM41.1667 28.167C41.1667 28.7416 40.9384 29.2927 40.5321 29.6991C40.1257 30.1054 39.5746 30.3337 39 30.3337H13C12.4254 30.3337 11.8743 30.1054 11.4679 29.6991C11.0616 29.2927 10.8333 28.7416 10.8333 28.167C10.8333 27.5924 11.0616 27.0413 11.4679 26.6349C11.8743 26.2286 12.4254 26.0003 13 26.0003H39C39.5746 26.0003 40.1257 26.2286 40.5321 26.6349C40.9384 27.0413 41.1667 27.5924 41.1667 28.167ZM32.5 36.8337C32.5 37.4083 32.2717 37.9594 31.8654 38.3657C31.4591 38.7721 30.908 39.0003 30.3333 39.0003H13C12.4254 39.0003 11.8743 38.7721 11.4679 38.3657C11.0616 37.9594 10.8333 37.4083 10.8333 36.8337C10.8333 36.259 11.0616 35.7079 11.4679 35.3016C11.8743 34.8953 12.4254 34.667 13 34.667H30.3333C30.908 34.667 31.4591 34.8953 31.8654 35.3016C32.2717 35.7079 32.5 36.259 32.5 36.8337ZM6.5 10.8337C6.5 10.4051 6.62707 9.98623 6.86515 9.62992C7.10323 9.27362 7.44161 8.99591 7.83752 8.83192C8.23343 8.66793 8.66907 8.62502 9.08936 8.70862C9.50965 8.79222 9.89572 8.99858 10.1987 9.30159C10.5017 9.60461 10.7081 9.99067 10.7917 10.411C10.8753 10.8313 10.8324 11.2669 10.6684 11.6628C10.5044 12.0587 10.2267 12.3971 9.8704 12.6352C9.51409 12.8733 9.09519 13.0003 8.66667 13.0003C8.09203 13.0003 7.54093 12.7721 7.1346 12.3657C6.72827 11.9594 6.5 11.4083 6.5 10.8337ZM13 10.8337C13 10.4051 13.1271 9.98623 13.3651 9.62992C13.6032 9.27362 13.9416 8.99591 14.3375 8.83192C14.7334 8.66793 15.1691 8.62502 15.5894 8.70862C16.0097 8.79222 16.3957 8.99858 16.6987 9.30159C17.0017 9.60461 17.2081 9.99067 17.2917 10.411C17.3753 10.8313 17.3324 11.2669 17.1684 11.6628C17.0044 12.0587 16.7267 12.3971 16.3704 12.6352C16.0141 12.8733 15.5952 13.0003 15.1667 13.0003C14.592 13.0003 14.0409 12.7721 13.6346 12.3657C13.2283 11.9594 13 11.4083 13 10.8337ZM19.5 10.8337C19.5 10.4051 19.6271 9.98623 19.8651 9.62992C20.1032 9.27362 20.4416 8.99591 20.8375 8.83192C21.2334 8.66793 21.6691 8.62502 22.0894 8.70862C22.5097 8.79222 22.8957 8.99858 23.1987 9.30159C23.5017 9.60461 23.7081 9.99067 23.7917 10.411C23.8753 10.8313 23.8324 11.2669 23.6684 11.6628C23.5044 12.0587 23.2267 12.3971 22.8704 12.6352C22.5141 12.8733 22.0952 13.0003 21.6667 13.0003C21.092 13.0003 20.5409 12.7721 20.1346 12.3657C19.7283 11.9594 19.5 11.4083 19.5 10.8337Z" fill="#3851F9"/>
</svg>
