<svg width="58" height="58" viewBox="0 0 58 58" fill="none" xmlns="http://www.w3.org/2000/svg">
<g clip-path="url(#clip0_34_128)">
<rect width="58" height="58" rx="29" fill="url(#paint0_linear_34_128)"/>
<g filter="url(#filter0_f_34_128)">
<circle cx="29" cy="29" r="15" fill="#6D12B7"/>
</g>
<path d="M29 29C32.3137 29 35 26.3137 35 23C35 19.6863 32.3137 17 29 17C25.6863 17 23 19.6863 23 23C23 26.3137 25.6863 29 29 29Z" fill="#9013FE"/>
<path d="M29 30.999C24.0317 31.0046 20.0055 35.0307 20 39.999C20 40.5513 20.4477 40.999 21 40.999H37C37.5522 40.999 38 40.5513 38 39.999C37.9945 35.0307 33.9683 31.0045 29 30.999Z" fill="#9013FE"/>
</g>
<rect x="0.635417" y="0.635417" width="56.7292" height="56.7292" rx="28.3646" stroke="url(#paint1_linear_34_128)" stroke-width="1.27083"/>
<defs>
<filter id="filter0_f_34_128" x="-50" y="-50" width="158" height="158" filterUnits="userSpaceOnUse" color-interpolation-filters="sRGB">
<feFlood flood-opacity="0" result="BackgroundImageFix"/>
<feBlend mode="normal" in="SourceGraphic" in2="BackgroundImageFix" result="shape"/>
<feGaussianBlur stdDeviation="32" result="effect1_foregroundBlur_34_128"/>
</filter>
<linearGradient id="paint0_linear_34_128" x1="29" y1="-10.875" x2="29" y2="73.0179" gradientUnits="userSpaceOnUse">
<stop stop-color="white" stop-opacity="0.07"/>
<stop offset="1" stop-color="white" stop-opacity="0.05"/>
</linearGradient>
<linearGradient id="paint1_linear_34_128" x1="-2.18066" y1="-3.27505" x2="49.7093" y2="59.5369" gradientUnits="userSpaceOnUse">
<stop stop-color="white" stop-opacity="0.39"/>
<stop offset="1" stop-color="white" stop-opacity="0.02"/>
</linearGradient>
<clipPath id="clip0_34_128">
<rect width="58" height="58" rx="29" fill="white"/>
</clipPath>
</defs>
</svg>
